<mxfile host="app.diagrams.net" modified="2021-09-13T06:14:06.666Z" agent="5.0 (Macintosh; Intel Mac OS X 10_15_7) AppleWebKit/537.36 (KHTML, like Gecko) Chrome/93.0.4577.63 Safari/537.36" etag="qNVOHGzFMeVZRdmDXBrE" version="15.1.4" type="github">
  <diagram id="bgzZZHYhQTPhg7QTGfTD" name="Page-1">
    <mxGraphModel dx="1298" dy="840" grid="1" gridSize="10" guides="1" tooltips="1" connect="1" arrows="1" fold="1" page="1" pageScale="1" pageWidth="827" pageHeight="1169" math="0" shadow="0">
      <root>
        <mxCell id="0" />
        <mxCell id="1" parent="0" />
        <mxCell id="oVRuIWFX0pX_K5AUofUP-2" value="app" style="shape=umlLifeline;perimeter=lifelinePerimeter;whiteSpace=wrap;html=1;container=1;collapsible=0;recursiveResize=0;outlineConnect=0;fillColor=#f5f5f5;strokeColor=#666666;fontColor=#333333;" parent="1" vertex="1">
          <mxGeometry x="40" y="100" width="100" height="1540" as="geometry" />
        </mxCell>
        <mxCell id="oVRuIWFX0pX_K5AUofUP-3" value="js sdk" style="shape=umlLifeline;perimeter=lifelinePerimeter;whiteSpace=wrap;html=1;container=1;collapsible=0;recursiveResize=0;outlineConnect=0;fillColor=#f5f5f5;strokeColor=#666666;fontColor=#333333;" parent="1" vertex="1">
          <mxGeometry x="240" y="100" width="100" height="1540" as="geometry" />
        </mxCell>
        <mxCell id="oVRuIWFX0pX_K5AUofUP-18" value="" style="html=1;points=[];perimeter=orthogonalPerimeter;" parent="oVRuIWFX0pX_K5AUofUP-3" vertex="1">
          <mxGeometry x="45" y="190" width="10" height="80" as="geometry" />
        </mxCell>
        <mxCell id="oVRuIWFX0pX_K5AUofUP-4" value="na sdk" style="shape=umlLifeline;perimeter=lifelinePerimeter;whiteSpace=wrap;html=1;container=1;collapsible=0;recursiveResize=0;outlineConnect=0;fillColor=#f5f5f5;strokeColor=#666666;fontColor=#333333;" parent="1" vertex="1">
          <mxGeometry x="440" y="100" width="100" height="1540" as="geometry" />
        </mxCell>
        <mxCell id="oVRuIWFX0pX_K5AUofUP-21" value="" style="html=1;points=[];perimeter=orthogonalPerimeter;" parent="oVRuIWFX0pX_K5AUofUP-4" vertex="1">
          <mxGeometry x="45" y="200" width="10" height="150" as="geometry" />
        </mxCell>
        <mxCell id="oVRuIWFX0pX_K5AUofUP-32" style="edgeStyle=orthogonalEdgeStyle;rounded=0;orthogonalLoop=1;jettySize=auto;html=1;elbow=vertical;" parent="oVRuIWFX0pX_K5AUofUP-4" source="oVRuIWFX0pX_K5AUofUP-21" target="oVRuIWFX0pX_K5AUofUP-21" edge="1">
          <mxGeometry relative="1" as="geometry" />
        </mxCell>
        <mxCell id="oVRuIWFX0pX_K5AUofUP-5" value="业务server" style="shape=umlLifeline;perimeter=lifelinePerimeter;whiteSpace=wrap;html=1;container=1;collapsible=0;recursiveResize=0;outlineConnect=0;fillColor=#dae8fc;strokeColor=#6c8ebf;" parent="1" vertex="1">
          <mxGeometry x="640" y="100" width="100" height="1540" as="geometry" />
        </mxCell>
        <mxCell id="oVRuIWFX0pX_K5AUofUP-41" value="" style="html=1;points=[];perimeter=orthogonalPerimeter;" parent="oVRuIWFX0pX_K5AUofUP-5" vertex="1">
          <mxGeometry x="45" y="360" width="10" height="30" as="geometry" />
        </mxCell>
        <mxCell id="oVRuIWFX0pX_K5AUofUP-44" value="" style="html=1;points=[];perimeter=orthogonalPerimeter;" parent="oVRuIWFX0pX_K5AUofUP-5" vertex="1">
          <mxGeometry x="45" y="420" width="10" height="80" as="geometry" />
        </mxCell>
        <mxCell id="oVRuIWFX0pX_K5AUofUP-47" value="" style="html=1;points=[];perimeter=orthogonalPerimeter;" parent="oVRuIWFX0pX_K5AUofUP-5" vertex="1">
          <mxGeometry x="45" y="631" width="10" height="130" as="geometry" />
        </mxCell>
        <mxCell id="oVRuIWFX0pX_K5AUofUP-63" value="" style="html=1;points=[];perimeter=orthogonalPerimeter;" parent="oVRuIWFX0pX_K5AUofUP-5" vertex="1">
          <mxGeometry x="45" y="790" width="10" height="80" as="geometry" />
        </mxCell>
        <mxCell id="oVRuIWFX0pX_K5AUofUP-72" value="" style="html=1;points=[];perimeter=orthogonalPerimeter;" parent="oVRuIWFX0pX_K5AUofUP-5" vertex="1">
          <mxGeometry x="45" y="1009" width="10" height="121" as="geometry" />
        </mxCell>
        <mxCell id="oVRuIWFX0pX_K5AUofUP-80" value="" style="html=1;points=[];perimeter=orthogonalPerimeter;" parent="oVRuIWFX0pX_K5AUofUP-5" vertex="1">
          <mxGeometry x="45" y="1190" width="10" height="80" as="geometry" />
        </mxCell>
        <mxCell id="oVRuIWFX0pX_K5AUofUP-6" value="交易中台" style="shape=umlLifeline;perimeter=lifelinePerimeter;whiteSpace=wrap;html=1;container=1;collapsible=0;recursiveResize=0;outlineConnect=0;fillColor=#d5e8d4;strokeColor=#82b366;" parent="1" vertex="1">
          <mxGeometry x="840" y="100" width="100" height="1540" as="geometry" />
        </mxCell>
        <mxCell id="oVRuIWFX0pX_K5AUofUP-75" value="" style="html=1;points=[];perimeter=orthogonalPerimeter;" parent="oVRuIWFX0pX_K5AUofUP-6" vertex="1">
          <mxGeometry x="45" y="1040" width="10" height="50" as="geometry" />
        </mxCell>
        <mxCell id="oVRuIWFX0pX_K5AUofUP-7" value="支付中台" style="shape=umlLifeline;perimeter=lifelinePerimeter;whiteSpace=wrap;html=1;container=1;collapsible=0;recursiveResize=0;outlineConnect=0;fillColor=#d5e8d4;strokeColor=#82b366;" parent="1" vertex="1">
          <mxGeometry x="1040" y="100" width="100" height="1540" as="geometry" />
        </mxCell>
        <mxCell id="oVRuIWFX0pX_K5AUofUP-15" value="" style="html=1;points=[];perimeter=orthogonalPerimeter;" parent="oVRuIWFX0pX_K5AUofUP-7" vertex="1">
          <mxGeometry x="45" y="90" width="10" height="30" as="geometry" />
        </mxCell>
        <mxCell id="oVRuIWFX0pX_K5AUofUP-34" value="" style="html=1;points=[];perimeter=orthogonalPerimeter;" parent="oVRuIWFX0pX_K5AUofUP-7" vertex="1">
          <mxGeometry x="45" y="320" width="10" height="70" as="geometry" />
        </mxCell>
        <mxCell id="oVRuIWFX0pX_K5AUofUP-50" value="" style="html=1;points=[];perimeter=orthogonalPerimeter;" parent="oVRuIWFX0pX_K5AUofUP-7" vertex="1">
          <mxGeometry x="45" y="651" width="10" height="40" as="geometry" />
        </mxCell>
        <mxCell id="oVRuIWFX0pX_K5AUofUP-57" value="" style="html=1;points=[];perimeter=orthogonalPerimeter;" parent="oVRuIWFX0pX_K5AUofUP-7" vertex="1">
          <mxGeometry x="45" y="711" width="10" height="30" as="geometry" />
        </mxCell>
        <mxCell id="oVRuIWFX0pX_K5AUofUP-69" value="" style="html=1;points=[];perimeter=orthogonalPerimeter;" parent="oVRuIWFX0pX_K5AUofUP-7" vertex="1">
          <mxGeometry x="45" y="990" width="10" height="130" as="geometry" />
        </mxCell>
        <mxCell id="oVRuIWFX0pX_K5AUofUP-8" value="华为/苹果server" style="shape=umlLifeline;perimeter=lifelinePerimeter;whiteSpace=wrap;html=1;container=1;collapsible=0;recursiveResize=0;outlineConnect=0;fillColor=#f8cecc;strokeColor=#b85450;" parent="1" vertex="1">
          <mxGeometry x="1240.5" y="100" width="100" height="1540" as="geometry" />
        </mxCell>
        <mxCell id="oVRuIWFX0pX_K5AUofUP-24" value="" style="html=1;points=[];perimeter=orthogonalPerimeter;" parent="oVRuIWFX0pX_K5AUofUP-8" vertex="1">
          <mxGeometry x="45.5" y="210" width="10" height="20" as="geometry" />
        </mxCell>
        <mxCell id="oVRuIWFX0pX_K5AUofUP-53" value="" style="html=1;points=[];perimeter=orthogonalPerimeter;" parent="oVRuIWFX0pX_K5AUofUP-8" vertex="1">
          <mxGeometry x="45.5" y="661" width="10" height="20" as="geometry" />
        </mxCell>
        <mxCell id="oVRuIWFX0pX_K5AUofUP-9" value="" style="html=1;points=[];perimeter=orthogonalPerimeter;" parent="1" vertex="1">
          <mxGeometry x="685" y="170" width="10" height="80" as="geometry" />
        </mxCell>
        <mxCell id="oVRuIWFX0pX_K5AUofUP-10" value="1. 创建签约" style="html=1;verticalAlign=bottom;endArrow=block;entryX=0;entryY=0;" parent="1" source="oVRuIWFX0pX_K5AUofUP-2" target="oVRuIWFX0pX_K5AUofUP-9" edge="1">
          <mxGeometry relative="1" as="geometry">
            <mxPoint x="610" y="170" as="sourcePoint" />
          </mxGeometry>
        </mxCell>
        <mxCell id="oVRuIWFX0pX_K5AUofUP-11" value="返回业务签约订单ID &amp;amp; js sdk需要什么额外参数么？？？" style="html=1;verticalAlign=bottom;endArrow=open;dashed=1;endSize=8;exitX=0;exitY=0.95;" parent="1" source="oVRuIWFX0pX_K5AUofUP-9" target="oVRuIWFX0pX_K5AUofUP-2" edge="1">
          <mxGeometry relative="1" as="geometry">
            <mxPoint x="610" y="246" as="targetPoint" />
          </mxGeometry>
        </mxCell>
        <mxCell id="oVRuIWFX0pX_K5AUofUP-19" value="2. 向第三方发起签约（sign接口？）" style="html=1;verticalAlign=bottom;endArrow=block;entryX=0;entryY=0;" parent="1" source="oVRuIWFX0pX_K5AUofUP-2" target="oVRuIWFX0pX_K5AUofUP-18" edge="1">
          <mxGeometry relative="1" as="geometry">
            <mxPoint x="215" y="290" as="sourcePoint" />
          </mxGeometry>
        </mxCell>
        <mxCell id="oVRuIWFX0pX_K5AUofUP-22" value="2.1 调用na sdk发起签约" style="html=1;verticalAlign=bottom;endArrow=block;entryX=0;entryY=0;" parent="1" source="oVRuIWFX0pX_K5AUofUP-18" target="oVRuIWFX0pX_K5AUofUP-21" edge="1">
          <mxGeometry relative="1" as="geometry">
            <mxPoint x="310" y="300" as="sourcePoint" />
          </mxGeometry>
        </mxCell>
        <mxCell id="oVRuIWFX0pX_K5AUofUP-25" value="2.3 调用华为服务端确认签约" style="html=1;verticalAlign=bottom;endArrow=block;entryX=0;entryY=0;" parent="1" source="oVRuIWFX0pX_K5AUofUP-21" target="oVRuIWFX0pX_K5AUofUP-24" edge="1">
          <mxGeometry relative="1" as="geometry">
            <mxPoint x="1216" y="310" as="sourcePoint" />
          </mxGeometry>
        </mxCell>
        <mxCell id="oVRuIWFX0pX_K5AUofUP-26" value="返回签约凭证" style="html=1;verticalAlign=bottom;endArrow=open;dashed=1;endSize=8;exitX=0.5;exitY=0.9;exitDx=0;exitDy=0;exitPerimeter=0;" parent="1" source="oVRuIWFX0pX_K5AUofUP-24" target="oVRuIWFX0pX_K5AUofUP-4" edge="1">
          <mxGeometry relative="1" as="geometry">
            <mxPoint x="1216" y="386" as="targetPoint" />
            <mxPoint x="1291" y="386" as="sourcePoint" />
          </mxGeometry>
        </mxCell>
        <mxCell id="oVRuIWFX0pX_K5AUofUP-33" value="2.4 轮询检查，是否每次启动都检查？？？" style="text;html=1;align=center;verticalAlign=middle;resizable=0;points=[];autosize=1;strokeColor=none;" parent="1" vertex="1">
          <mxGeometry x="490" y="365" width="240" height="20" as="geometry" />
        </mxCell>
        <mxCell id="oVRuIWFX0pX_K5AUofUP-35" value="2.5 签约凭证上报支付中台" style="html=1;verticalAlign=bottom;endArrow=block;entryX=0;entryY=0;" parent="1" source="oVRuIWFX0pX_K5AUofUP-21" target="oVRuIWFX0pX_K5AUofUP-34" edge="1">
          <mxGeometry relative="1" as="geometry">
            <mxPoint x="1015" y="420" as="sourcePoint" />
          </mxGeometry>
        </mxCell>
        <mxCell id="oVRuIWFX0pX_K5AUofUP-37" value="需要添加上报业务方服务端记录" style="ellipse;whiteSpace=wrap;html=1;fillColor=#ffe6cc;strokeColor=#d79b00;" parent="1" vertex="1">
          <mxGeometry x="390" y="335" width="90" height="50" as="geometry" />
        </mxCell>
        <mxCell id="oVRuIWFX0pX_K5AUofUP-42" value="2.6 通知业务服务端签约成功" style="html=1;verticalAlign=bottom;endArrow=block;entryX=1;entryY=0;exitX=0.9;exitY=0.529;exitDx=0;exitDy=0;exitPerimeter=0;" parent="1" source="oVRuIWFX0pX_K5AUofUP-34" target="oVRuIWFX0pX_K5AUofUP-41" edge="1">
          <mxGeometry relative="1" as="geometry">
            <mxPoint x="755" y="460" as="sourcePoint" />
          </mxGeometry>
        </mxCell>
        <mxCell id="oVRuIWFX0pX_K5AUofUP-45" value="3. review查询服务端签约是否成功" style="html=1;verticalAlign=bottom;endArrow=block;entryX=0;entryY=0;" parent="1" source="oVRuIWFX0pX_K5AUofUP-2" target="oVRuIWFX0pX_K5AUofUP-44" edge="1">
          <mxGeometry relative="1" as="geometry">
            <mxPoint x="615" y="520" as="sourcePoint" />
          </mxGeometry>
        </mxCell>
        <mxCell id="oVRuIWFX0pX_K5AUofUP-46" value="返回签约状态" style="html=1;verticalAlign=bottom;endArrow=open;dashed=1;endSize=8;exitX=0;exitY=0.95;" parent="1" source="oVRuIWFX0pX_K5AUofUP-44" target="oVRuIWFX0pX_K5AUofUP-2" edge="1">
          <mxGeometry relative="1" as="geometry">
            <mxPoint x="615" y="596" as="targetPoint" />
          </mxGeometry>
        </mxCell>
        <mxCell id="oVRuIWFX0pX_K5AUofUP-48" value="4. 发起解约" style="html=1;verticalAlign=bottom;endArrow=block;entryX=0;entryY=0;" parent="1" target="oVRuIWFX0pX_K5AUofUP-47" edge="1">
          <mxGeometry relative="1" as="geometry">
            <mxPoint x="89.5" y="731" as="sourcePoint" />
          </mxGeometry>
        </mxCell>
        <mxCell id="oVRuIWFX0pX_K5AUofUP-51" value="4.1 调用支付中台发起解约，需要携带什么参数？？？" style="html=1;verticalAlign=bottom;endArrow=block;entryX=0;entryY=0;" parent="1" source="oVRuIWFX0pX_K5AUofUP-47" target="oVRuIWFX0pX_K5AUofUP-50" edge="1">
          <mxGeometry relative="1" as="geometry">
            <mxPoint x="1015" y="751" as="sourcePoint" />
          </mxGeometry>
        </mxCell>
        <mxCell id="oVRuIWFX0pX_K5AUofUP-54" value="4.3 请求第三方解约" style="html=1;verticalAlign=bottom;endArrow=block;entryX=0;entryY=0;exitX=0.1;exitY=0.225;exitDx=0;exitDy=0;exitPerimeter=0;" parent="1" source="oVRuIWFX0pX_K5AUofUP-50" target="oVRuIWFX0pX_K5AUofUP-53" edge="1">
          <mxGeometry relative="1" as="geometry">
            <mxPoint x="1216" y="771" as="sourcePoint" />
          </mxGeometry>
        </mxCell>
        <mxCell id="oVRuIWFX0pX_K5AUofUP-58" value="4.4 华为解约结果通知" style="html=1;verticalAlign=bottom;endArrow=block;entryX=1;entryY=0;" parent="1" target="oVRuIWFX0pX_K5AUofUP-57" edge="1">
          <mxGeometry relative="1" as="geometry">
            <mxPoint x="1290" y="811" as="sourcePoint" />
          </mxGeometry>
        </mxCell>
        <mxCell id="oVRuIWFX0pX_K5AUofUP-60" style="edgeStyle=orthogonalEdgeStyle;rounded=0;orthogonalLoop=1;jettySize=auto;html=1;entryX=0.5;entryY=0.731;entryDx=0;entryDy=0;entryPerimeter=0;" parent="1" source="oVRuIWFX0pX_K5AUofUP-57" target="oVRuIWFX0pX_K5AUofUP-47" edge="1">
          <mxGeometry relative="1" as="geometry" />
        </mxCell>
        <mxCell id="oVRuIWFX0pX_K5AUofUP-62" value="&lt;span style=&quot;font-size: 12px ; background-color: rgb(248 , 249 , 250)&quot;&gt;4.5 通知业务服务端解约结果&lt;/span&gt;" style="edgeLabel;html=1;align=center;verticalAlign=middle;resizable=0;points=[];" parent="oVRuIWFX0pX_K5AUofUP-60" vertex="1" connectable="0">
          <mxGeometry x="0.038" y="1" relative="1" as="geometry">
            <mxPoint as="offset" />
          </mxGeometry>
        </mxCell>
        <mxCell id="oVRuIWFX0pX_K5AUofUP-64" value="5. 轮询解约结果" style="html=1;verticalAlign=bottom;endArrow=block;entryX=0;entryY=0;" parent="1" source="oVRuIWFX0pX_K5AUofUP-2" target="oVRuIWFX0pX_K5AUofUP-63" edge="1">
          <mxGeometry relative="1" as="geometry">
            <mxPoint x="615" y="890" as="sourcePoint" />
          </mxGeometry>
        </mxCell>
        <mxCell id="oVRuIWFX0pX_K5AUofUP-65" value="返回解约结果" style="html=1;verticalAlign=bottom;endArrow=open;dashed=1;endSize=8;exitX=0;exitY=0.95;" parent="1" source="oVRuIWFX0pX_K5AUofUP-63" target="oVRuIWFX0pX_K5AUofUP-2" edge="1">
          <mxGeometry relative="1" as="geometry">
            <mxPoint x="615" y="966" as="targetPoint" />
          </mxGeometry>
        </mxCell>
        <mxCell id="oVRuIWFX0pX_K5AUofUP-70" value="6.1 第三方扣款" style="html=1;verticalAlign=bottom;endArrow=block;entryX=1;entryY=0;" parent="1" source="oVRuIWFX0pX_K5AUofUP-8" target="oVRuIWFX0pX_K5AUofUP-69" edge="1">
          <mxGeometry relative="1" as="geometry">
            <mxPoint x="1155" y="1090" as="sourcePoint" />
          </mxGeometry>
        </mxCell>
        <mxCell id="oVRuIWFX0pX_K5AUofUP-73" value="6.2 通知业务方扣款，携带参数签约ID，商品ID会有么？？？&lt;br&gt;（苹果有iapid，华为呢）" style="html=1;verticalAlign=bottom;endArrow=block;entryX=1;entryY=0;" parent="1" source="oVRuIWFX0pX_K5AUofUP-69" target="oVRuIWFX0pX_K5AUofUP-72" edge="1">
          <mxGeometry relative="1" as="geometry">
            <mxPoint x="955" y="1109" as="sourcePoint" />
          </mxGeometry>
        </mxCell>
        <mxCell id="oVRuIWFX0pX_K5AUofUP-76" value="6.3 生成每月扣款订单" style="html=1;verticalAlign=bottom;endArrow=block;entryX=0;entryY=0;" parent="1" source="oVRuIWFX0pX_K5AUofUP-72" target="oVRuIWFX0pX_K5AUofUP-75" edge="1">
          <mxGeometry relative="1" as="geometry">
            <mxPoint x="815" y="1140" as="sourcePoint" />
          </mxGeometry>
        </mxCell>
        <mxCell id="oVRuIWFX0pX_K5AUofUP-77" value="返回订单ID" style="html=1;verticalAlign=bottom;endArrow=open;dashed=1;endSize=8;exitX=0;exitY=0.95;" parent="1" source="oVRuIWFX0pX_K5AUofUP-75" target="oVRuIWFX0pX_K5AUofUP-72" edge="1">
          <mxGeometry relative="1" as="geometry">
            <mxPoint x="815" y="1216" as="targetPoint" />
          </mxGeometry>
        </mxCell>
        <mxCell id="oVRuIWFX0pX_K5AUofUP-78" value="" style="endArrow=block;dashed=1;endFill=0;endSize=12;html=1;entryX=0.9;entryY=0.962;entryDx=0;entryDy=0;entryPerimeter=0;" parent="1" source="oVRuIWFX0pX_K5AUofUP-72" target="oVRuIWFX0pX_K5AUofUP-69" edge="1">
          <mxGeometry width="160" relative="1" as="geometry">
            <mxPoint x="710" y="1220" as="sourcePoint" />
            <mxPoint x="870" y="1220" as="targetPoint" />
          </mxGeometry>
        </mxCell>
        <mxCell id="oVRuIWFX0pX_K5AUofUP-79" value="返回订单ID" style="edgeLabel;html=1;align=center;verticalAlign=middle;resizable=0;points=[];" parent="oVRuIWFX0pX_K5AUofUP-78" vertex="1" connectable="0">
          <mxGeometry x="0.0175" y="3" relative="1" as="geometry">
            <mxPoint as="offset" />
          </mxGeometry>
        </mxCell>
        <mxCell id="oVRuIWFX0pX_K5AUofUP-81" value="7. 客户端查询用户的VIP权益，能否每次进入大地图都调用一次todayPrigress？？？" style="html=1;verticalAlign=bottom;endArrow=block;entryX=0;entryY=0;" parent="1" source="oVRuIWFX0pX_K5AUofUP-2" target="oVRuIWFX0pX_K5AUofUP-80" edge="1">
          <mxGeometry relative="1" as="geometry">
            <mxPoint x="615" y="1290" as="sourcePoint" />
          </mxGeometry>
        </mxCell>
        <mxCell id="oVRuIWFX0pX_K5AUofUP-82" value="返回最新VIP权益" style="html=1;verticalAlign=bottom;endArrow=open;dashed=1;endSize=8;exitX=0;exitY=0.95;" parent="1" source="oVRuIWFX0pX_K5AUofUP-80" target="oVRuIWFX0pX_K5AUofUP-2" edge="1">
          <mxGeometry relative="1" as="geometry">
            <mxPoint x="615" y="1366" as="targetPoint" />
          </mxGeometry>
        </mxCell>
        <mxCell id="oVRuIWFX0pX_K5AUofUP-83" value="" style="shape=curlyBracket;whiteSpace=wrap;html=1;rounded=1;flipH=1;" parent="1" vertex="1">
          <mxGeometry x="1410" y="160" width="20" height="440" as="geometry" />
        </mxCell>
        <mxCell id="oVRuIWFX0pX_K5AUofUP-84" value="签约" style="text;html=1;align=center;verticalAlign=middle;resizable=0;points=[];autosize=1;strokeColor=none;" parent="1" vertex="1">
          <mxGeometry x="1440" y="370" width="40" height="20" as="geometry" />
        </mxCell>
        <mxCell id="oVRuIWFX0pX_K5AUofUP-85" value="" style="shape=curlyBracket;whiteSpace=wrap;html=1;rounded=1;flipH=1;" parent="1" vertex="1">
          <mxGeometry x="1410" y="700" width="20" height="260" as="geometry" />
        </mxCell>
        <mxCell id="oVRuIWFX0pX_K5AUofUP-86" value="解约" style="text;html=1;align=center;verticalAlign=middle;resizable=0;points=[];autosize=1;strokeColor=none;" parent="1" vertex="1">
          <mxGeometry x="1430" y="820" width="40" height="20" as="geometry" />
        </mxCell>
        <mxCell id="oVRuIWFX0pX_K5AUofUP-87" value="" style="shape=curlyBracket;whiteSpace=wrap;html=1;rounded=1;flipH=1;" parent="1" vertex="1">
          <mxGeometry x="1410" y="1070" width="20" height="310" as="geometry" />
        </mxCell>
        <mxCell id="oVRuIWFX0pX_K5AUofUP-88" value="代扣" style="text;html=1;align=center;verticalAlign=middle;resizable=0;points=[];autosize=1;strokeColor=none;" parent="1" vertex="1">
          <mxGeometry x="1430" y="1215" width="40" height="20" as="geometry" />
        </mxCell>
      </root>
    </mxGraphModel>
  </diagram>
</mxfile>
